<svg viewBox="0 0 400 250" xmlns="http://www.w3.org/2000/svg" role="img" aria-label="Abstract wireframe of an operations monitoring dashboard with signal tiles">
<rect x="0" y="0" width="400" height="250" fill="var(--stone)"/>
<rect x="14" y="14" width="372" height="222" rx="6" fill="var(--cream)" stroke="var(--fog)" stroke-opacity="0.35" stroke-width="1"/>
<rect x="14" y="14" width="372" height="26" rx="6" fill="var(--ink)" fill-opacity="0.05"/>
<circle cx="30" cy="27" r="3.5" fill="var(--fog)" fill-opacity="0.6"/>
<circle cx="42" cy="27" r="3.5" fill="var(--fog)" fill-opacity="0.6"/>
<circle cx="54" cy="27" r="3.5" fill="var(--fog)" fill-opacity="0.6"/>
<rect x="150" y="22" width="100" height="10" rx="2" fill="var(--fog)" fill-opacity="0.35"/>
<rect x="14" y="40" width="64" height="196" fill="var(--ink)" fill-opacity="0.03"/>
<rect x="26" y="58" width="40" height="6" rx="1.5" fill="var(--sage)"/>
<rect x="26" y="78" width="40" height="6" rx="1.5" fill="var(--fog)" fill-opacity="0.4"/>
<rect x="26" y="98" width="40" height="6" rx="1.5" fill="var(--fog)" fill-opacity="0.4"/>
<rect x="26" y="118" width="40" height="6" rx="1.5" fill="var(--fog)" fill-opacity="0.4"/>
<rect x="94" y="58" width="100" height="66" rx="3" fill="var(--ink)" fill-opacity="0.05" stroke="var(--fog)" stroke-opacity="0.25"/><rect x="104" y="68" width="40" height="6" rx="1.5" fill="var(--fog)" fill-opacity="0.5"/><path d="M 104 104 L 104 102 L 112 98 L 120 100 L 128 95 L 136 97 L 144 92 L 152 94" fill="none" stroke="var(--sage)" stroke-width="1.5"/><rect x="214" y="58" width="100" height="66" rx="3" fill="var(--ink)" fill-opacity="0.05" stroke="var(--fog)" stroke-opacity="0.25"/><rect x="224" y="68" width="40" height="6" rx="1.5" fill="var(--fog)" fill-opacity="0.5"/><path d="M 224 104 L 224 94 L 232 97 L 240 95 L 248 100 L 256 98 L 264 102 L 272 99" fill="none" stroke="var(--clay)" stroke-width="1.5"/><rect x="94" y="140" width="100" height="66" rx="3" fill="var(--ink)" fill-opacity="0.05" stroke="var(--fog)" stroke-opacity="0.25"/><rect x="104" y="150" width="40" height="6" rx="1.5" fill="var(--fog)" fill-opacity="0.5"/><path d="M 104 186 L 104 183 L 112 178 L 120 181 L 128 179 L 136 177 L 144 180 L 152 175" fill="none" stroke="var(--sage)" stroke-width="1.5"/><rect x="214" y="140" width="100" height="66" rx="3" fill="var(--ink)" fill-opacity="0.05" stroke="var(--fog)" stroke-opacity="0.25"/><rect x="224" y="150" width="40" height="6" rx="1.5" fill="var(--fog)" fill-opacity="0.5"/><path d="M 224 186 L 224 178 L 232 181 L 240 176 L 248 180 L 256 183 L 264 179 L 272 182" fill="none" stroke="var(--fog)" stroke-width="1.5"/>
</svg>