<svg viewBox="0 0 400 250" xmlns="http://www.w3.org/2000/svg" role="img" aria-label="Abstract wireframe of a release-readiness dashboard with a candidacy score gauge">
<rect x="0" y="0" width="400" height="250" fill="var(--stone)"/>
<rect x="14" y="14" width="372" height="222" rx="6" fill="var(--cream)" stroke="var(--fog)" stroke-opacity="0.35" stroke-width="1"/>
<rect x="14" y="14" width="372" height="26" rx="6" fill="var(--ink)" fill-opacity="0.05"/>
<circle cx="30" cy="27" r="3.5" fill="var(--fog)" fill-opacity="0.6"/>
<circle cx="42" cy="27" r="3.5" fill="var(--fog)" fill-opacity="0.6"/>
<circle cx="54" cy="27" r="3.5" fill="var(--fog)" fill-opacity="0.6"/>
<rect x="150" y="22" width="100" height="10" rx="2" fill="var(--fog)" fill-opacity="0.35"/>
<rect x="14" y="40" width="64" height="196" fill="var(--ink)" fill-opacity="0.03"/>
<rect x="26" y="58" width="40" height="6" rx="1.5" fill="var(--sage)"/>
<rect x="26" y="78" width="40" height="6" rx="1.5" fill="var(--fog)" fill-opacity="0.4"/>
<rect x="26" y="98" width="40" height="6" rx="1.5" fill="var(--fog)" fill-opacity="0.4"/>
<rect x="26" y="118" width="40" height="6" rx="1.5" fill="var(--fog)" fill-opacity="0.4"/>

<circle cx="140" cy="140" r="42" fill="none" stroke="var(--fog)" stroke-opacity="0.3" stroke-width="8"/>
<circle cx="140" cy="140" r="42" fill="none" stroke="var(--sage)" stroke-width="8" stroke-dasharray="264" stroke-dashoffset="70" stroke-linecap="round" transform="rotate(-90 140 140)"/>
<text x="140" y="146" text-anchor="middle" font-family="monospace" font-size="18" fill="var(--ink)">78%</text>
<rect x="210" y="66" width="150" height="18" rx="3" fill="var(--ink)" fill-opacity="0.05"/>
<rect x="218" y="72" width="60" height="6" rx="1.5" fill="var(--fog)" fill-opacity="0.5"/>
<circle cx="348" cy="75" r="4" fill="var(--sage)"/>
<rect x="210" y="92" width="150" height="18" rx="3" fill="var(--ink)" fill-opacity="0.05"/>
<rect x="218" y="98" width="60" height="6" rx="1.5" fill="var(--fog)" fill-opacity="0.5"/>
<circle cx="348" cy="101" r="4" fill="var(--sage)"/>
<rect x="210" y="118" width="150" height="18" rx="3" fill="var(--ink)" fill-opacity="0.05"/>
<rect x="218" y="124" width="60" height="6" rx="1.5" fill="var(--fog)" fill-opacity="0.5"/>
<circle cx="348" cy="127" r="4" fill="var(--clay)"/>
<rect x="94" y="196" width="172" height="20" rx="3" fill="var(--sage)" fill-opacity="0.18" stroke="var(--sage)" stroke-opacity="0.5"/>
<rect x="104" y="203" width="90" height="6" rx="1.5" fill="var(--sage)"/>

</svg>